<svg width="15" height="15" viewBox="0 0 15 15" fill="none" xmlns="http://www.w3.org/2000/svg">
<path d="M13.3674 1.24023H12.4348V0.620116C12.4348 0.455651 12.3693 0.297922 12.2527 0.181628C12.1361 0.0653334 11.9779 0 11.813 0H11.1913C11.0264 0 10.8683 0.0653334 10.7517 0.181628C10.6351 0.297922 10.5696 0.455651 10.5696 0.620116V1.24023H8.08261V0.620116C8.08261 0.455651 8.0171 0.297922 7.90051 0.181628C7.78391 0.0653334 7.62577 0 7.46087 0H6.83913C6.67423 0 6.51609 0.0653334 6.39949 0.181628C6.2829 0.297922 6.21739 0.455651 6.21739 0.620116V1.24023H3.73043V0.620116C3.73043 0.455651 3.66493 0.297922 3.54833 0.181628C3.43173 0.0653334 3.27359 0 3.1087 0H2.48696C2.32206 0 2.16392 0.0653334 2.04732 0.181628C1.93072 0.297922 1.86522 0.455651 1.86522 0.620116V1.24023H0.932609C0.685265 1.24023 0.448053 1.33823 0.273155 1.51267C0.0982567 1.68711 0 1.92371 0 2.17041V13.3325C0 13.5792 0.0982567 13.8158 0.273155 13.9902C0.448053 14.1647 0.685265 14.2627 0.932609 14.2627H13.3674C13.6147 14.2627 13.8519 14.1647 14.0268 13.9902C14.2017 13.8158 14.3 13.5792 14.3 13.3325V2.17041C14.3 1.92371 14.2017 1.68711 14.0268 1.51267C13.8519 1.33823 13.6147 1.24023 13.3674 1.24023ZM11.1913 0.620116H11.813V2.48046H11.1913V0.620116ZM6.83913 0.620116H7.46087V1.51308C7.46087 1.51308 7.46087 1.51308 7.46087 1.55029C7.46087 1.5875 7.46087 1.55029 7.46087 1.5937V2.48046H6.83913V0.620116ZM2.48696 0.620116H3.1087V2.48046H2.48696V0.620116ZM0.932609 1.86035H1.86522V2.48046C1.86522 2.64493 1.93072 2.80266 2.04732 2.91895C2.16392 3.03525 2.32206 3.10058 2.48696 3.10058H3.1087C3.27359 3.10058 3.43173 3.03525 3.54833 2.91895C3.66493 2.80266 3.73043 2.64493 3.73043 2.48046V1.86035H6.21739V2.48046C6.21739 2.64493 6.2829 2.80266 6.39949 2.91895C6.51609 3.03525 6.67423 3.10058 6.83913 3.10058H7.46087C7.62577 3.10058 7.78391 3.03525 7.90051 2.91895C8.0171 2.80266 8.08261 2.64493 8.08261 2.48046V1.86035H10.5696V2.48046C10.5696 2.64493 10.6351 2.80266 10.7517 2.91895C10.8683 3.03525 11.0264 3.10058 11.1913 3.10058H11.813C11.9779 3.10058 12.1361 3.03525 12.2527 2.91895C12.3693 2.80266 12.4348 2.64493 12.4348 2.48046V1.86035H13.3674C13.4498 1.86035 13.5289 1.89301 13.5872 1.95116C13.6455 2.00931 13.6783 2.08817 13.6783 2.17041V4.34081H0.621739V2.17041C0.621739 2.08817 0.654491 2.00931 0.712791 1.95116C0.77109 1.89301 0.850161 1.86035 0.932609 1.86035ZM13.3674 13.6425H0.932609C0.850161 13.6425 0.77109 13.6099 0.712791 13.5517C0.654491 13.4936 0.621739 13.4147 0.621739 13.3325V4.96093H13.6783V13.3325C13.6783 13.4147 13.6455 13.4936 13.5872 13.5517C13.5289 13.6099 13.4498 13.6425 13.3674 13.6425Z" fill="#999999"/>
</svg>